<?xml version="1.0" encoding="utf-8"?>
<!-- Generator: Adobe Illustrator 22.1.0, SVG Export Plug-In . SVG Version: 6.00 Build 0)  -->
<svg version="1.1" id="Layer_1" xmlns="http://www.w3.org/2000/svg" xmlns:xlink="http://www.w3.org/1999/xlink" x="0px" y="0px"
	 viewBox="0 0 168 168" style="enable-background:new 0 0 168 168;" xml:space="preserve">
<style type="text/css">
	.st0{clip-path:url(#SVGID_2_);fill:none;stroke:#FCC200;stroke-width:3.819;}
	.st1{clip-path:url(#SVGID_2_);fill:#FFFFFF;}
</style>
<g>
	<g>
		<defs>
			<rect id="SVGID_1_" width="168" height="168"/>
		</defs>
		<clipPath id="SVGID_2_">
			<use xlink:href="#SVGID_1_"  style="overflow:visible;"/>
		</clipPath>
		<circle class="st0" cx="84" cy="84" r="82.1"/>
		<path class="st1" d="M93.4,82.8c0,6.1-4.9,11-11,11c-6.1,0-11-4.9-11-11c0-6.1,4.9-11,11-11C88.4,71.8,93.4,76.7,93.4,82.8
			 M97.8,82.8c0-8.5-6.9-15.5-15.5-15.5c-8.5,0-15.5,6.9-15.5,15.5c0,8.6,6.9,15.5,15.5,15.5C90.9,98.3,97.8,91.3,97.8,82.8"/>
		<path class="st1" d="M61.4,57.2c0,3.4-2.7,6.1-6.1,6.1c-3.4,0-6.1-2.7-6.1-6.1c0-3.4,2.8-6.1,6.1-6.1
			C58.7,51.1,61.4,53.8,61.4,57.2 M64.6,57.2c0-5.1-4.1-9.3-9.3-9.3c-5.1,0-9.3,4.2-9.3,9.3c0,5.1,4.2,9.3,9.3,9.3
			C60.4,66.5,64.6,62.3,64.6,57.2"/>
		<path class="st1" d="M111.7,44.3c0,3.4-2.7,6.1-6.1,6.1c-3.4,0-6.1-2.7-6.1-6.1c0-3.4,2.8-6.1,6.1-6.1
			C108.9,38.2,111.7,40.9,111.7,44.3 M114.8,44.3c0-5.1-4.1-9.3-9.3-9.3c-5.1,0-9.3,4.2-9.3,9.3c0,5.1,4.2,9.3,9.3,9.3
			C110.7,53.6,114.8,49.4,114.8,44.3"/>
		<path class="st1" d="M129.8,86.7c0,3.4-2.7,6.1-6.1,6.1c-3.4,0-6.1-2.7-6.1-6.1c0-3.4,2.8-6.1,6.1-6.1
			C127.1,80.6,129.8,83.4,129.8,86.7 M132.9,86.7c0-5.1-4.1-9.3-9.3-9.3c-5.1,0-9.3,4.2-9.3,9.3c0,5.1,4.2,9.3,9.3,9.3
			C128.8,96,132.9,91.9,132.9,86.7"/>
		<path class="st1" d="M97.8,122c0,3.4-2.7,6.1-6.1,6.1c-3.4,0-6.1-2.7-6.1-6.1c0-3.4,2.8-6.1,6.1-6.1C95,115.8,97.8,118.6,97.8,122
			 M100.9,122c0-5.1-4.1-9.3-9.3-9.3c-5.1,0-9.3,4.2-9.3,9.3c0,5.1,4.2,9.3,9.3,9.3C96.8,131.2,100.9,127.1,100.9,122"/>
		<path class="st1" d="M47,96.4c0,3.4-2.7,6.1-6.1,6.1c-3.4,0-6.1-2.7-6.1-6.1c0-3.4,2.8-6.1,6.1-6.1C44.3,90.3,47,93,47,96.4
			 M50.2,96.4c0-5.1-4.1-9.3-9.3-9.3c-5.1,0-9.3,4.2-9.3,9.3c0,5.1,4.2,9.3,9.3,9.3C46,105.7,50.2,101.5,50.2,96.4"/>
		<path class="st1" d="M68.1,69.6c0.8-0.8,0.8-2,0-2.8l-5.3-5c-0.8-0.8-2-0.8-2.8,0c-0.4,0.4-0.6,0.9-0.6,1.4c0,0.5,0.2,1,0.6,1.4
			l5.3,5C66.1,70.4,67.3,70.4,68.1,69.6"/>
		<path class="st1" d="M101.9,50.7c-0.9-0.6-2.2-0.3-2.7,0.7l-7.3,12.2c-0.6,0.9-0.3,2.2,0.7,2.7c0.5,0.3,1,0.4,1.5,0.2
			c0.5-0.1,0.9-0.4,1.2-0.9l7.3-12.2C103.2,52.5,102.9,51.3,101.9,50.7"/>
		<path class="st1" d="M87,101.3c-1.1,0.2-1.7,1.3-1.5,2.4l2.5,10.6c0.2,1.1,1.3,1.7,2.4,1.5c0.5-0.1,1-0.5,1.2-0.9
			c0.3-0.4,0.4-1,0.3-1.5l-2.5-10.6C89.1,101.7,88,101,87,101.3"/>
		<path class="st1" d="M64,88.3c-0.4-1-1.5-1.6-2.5-1.2L48.1,92c-1,0.4-1.6,1.5-1.2,2.5c0.2,0.5,0.6,0.9,1,1.1
			c0.5,0.2,1,0.3,1.5,0.1l13.3-4.9C63.8,90.4,64.3,89.3,64,88.3"/>
		<path class="st1" d="M117.5,86.3c0.1-1.1-0.7-2.1-1.8-2.2l-12.1-0.9c-1.1-0.1-2,0.7-2.1,1.8c0,0.5,0.1,1.1,0.5,1.5
			s0.8,0.7,1.3,0.7l12.1,0.9C116.4,88.2,117.4,87.4,117.5,86.3"/>
	</g>
</g>
</svg>
