<?xml version="1.0" encoding="utf-8"?>
<!-- Generator: Adobe Illustrator 22.1.0, SVG Export Plug-In . SVG Version: 6.00 Build 0)  -->
<svg version="1.1" id="Layer_1" xmlns="http://www.w3.org/2000/svg" xmlns:xlink="http://www.w3.org/1999/xlink" x="0px" y="0px"
	 viewBox="0 0 167.9 167.9" style="enable-background:new 0 0 167.9 167.9;" xml:space="preserve">
<style type="text/css">
	.st0{clip-path:url(#SVGID_2_);fill:none;stroke:#FCC200;stroke-width:3.8175;}
	.st1{clip-path:url(#SVGID_2_);fill:#FFFFFF;}
</style>
<g>
	<defs>
		<rect id="SVGID_1_" width="167.9" height="167.9"/>
	</defs>
	<clipPath id="SVGID_2_">
		<use xlink:href="#SVGID_1_"  style="overflow:visible;"/>
	</clipPath>
	<circle class="st0" cx="84" cy="84" r="82.1"/>
	<path class="st1" d="M42.4,96c-2.1,0-3.8,1.7-3.8,3.8v16.8c0,2.1,1.7,3.8,3.8,3.8c1.1,0,2-0.4,2.7-1.1c0.7-0.7,1.1-1.6,1.1-2.7
		V99.8C46.3,97.7,44.5,96,42.4,96"/>
	<path class="st1" d="M61.5,78.5c-2.1,0-3.8,1.7-3.8,3.8v34.2c0,2.1,1.7,3.8,3.8,3.8c1.1,0,2-0.4,2.7-1.1c0.7-0.7,1.1-1.6,1.1-2.7
		V82.3C65.4,80.2,63.6,78.5,61.5,78.5"/>
	<path class="st1" d="M80.6,55.2c-2.1,0-3.8,1.7-3.8,3.8v57.5c0,2.1,1.7,3.8,3.8,3.8c1.1,0,2-0.4,2.7-1.1c0.7-0.7,1.1-1.6,1.1-2.7
		V59C84.4,56.9,82.7,55.2,80.6,55.2"/>
	<path class="st1" d="M99.7,61c-2.1,0-3.8,1.7-3.8,3.8v51.7c0,2.1,1.7,3.8,3.8,3.8c1.1,0,2-0.4,2.7-1.1c0.7-0.7,1.1-1.6,1.1-2.7
		V64.8C103.5,62.7,101.8,61,99.7,61"/>
	<path class="st1" d="M118.8,37.7c-2.1,0-3.8,1.7-3.8,3.8v75c0,2.1,1.7,3.8,3.8,3.8c1.1,0,2-0.4,2.7-1.1c0.7-0.7,1.1-1.6,1.1-2.7
		v-75C122.6,39.5,120.9,37.7,118.8,37.7"/>
</g>
</svg>
