<?xml version="1.0" encoding="utf-8"?>
<!-- Generator: Adobe Illustrator 22.1.0, SVG Export Plug-In . SVG Version: 6.00 Build 0)  -->
<svg version="1.1" id="Layer_1" xmlns="http://www.w3.org/2000/svg" xmlns:xlink="http://www.w3.org/1999/xlink" x="0px" y="0px"
	 viewBox="0 0 168 168" style="enable-background:new 0 0 168 168;" xml:space="preserve">
<style type="text/css">
	.st0{clip-path:url(#SVGID_2_);fill:none;stroke:#FFFFFF;stroke-width:4.8684;stroke-miterlimit:10;}
	.st1{clip-path:url(#SVGID_2_);fill:none;stroke:#FFFFFF;stroke-width:2.9249;stroke-linecap:round;stroke-miterlimit:10;}
	.st2{clip-path:url(#SVGID_2_);fill:none;stroke:#FCC200;stroke-width:3.8184;}
</style>
<g>
	<defs>
		<rect id="SVGID_1_" width="168" height="168"/>
	</defs>
	<clipPath id="SVGID_2_">
		<use xlink:href="#SVGID_1_"  style="overflow:visible;"/>
	</clipPath>
	<path class="st0" d="M105.8,45c-7.4,0-14.4,2.9-19.6,8.1L85,54.3l-1.2-1.2C78.6,47.9,71.6,45,64.2,45c-7.4,0-14.3,2.9-19.6,8.1
		c-5.2,5.3-8.1,12.2-8.1,19.6c0,7.4,2.9,14.3,8.1,19.6l37,37c0.9,0.9,2.1,1.4,3.3,1.4c1.2,0,2.4-0.4,3.3-1.3l37.1-37
		c5.2-5.2,8.1-12.2,8.1-19.6c0-7.4-2.9-14.4-8.1-19.6C120.1,47.9,113.2,45,105.8,45z"/>
	<path class="st1" d="M117.8,83.5c2.8-4,3.9-8.8,3-13.6c-0.8-4.8-3.5-9-7.5-11.7c-1.6-1.1-3.3-2-5.1-2.5"/>
	<circle class="st2" cx="84" cy="84" r="82.1"/>
</g>
</svg>
